<svg width="96" height="96" viewBox="0 0 96 96" fill="none" xmlns="http://www.w3.org/2000/svg">
<path d="M18 18H86V86H18V18Z" fill="black"/>
<path fill-rule="evenodd" clip-rule="evenodd" d="M16 18C16 16.8954 16.8954 16 18 16H86C87.1046 16 88 16.8954 88 18V86C88 87.1046 87.1046 88 86 88H18C16.8954 88 16 87.1046 16 86V18ZM20 20V84H84V20H20Z" fill="black"/>
<path d="M10 10H78V78H10V10Z" fill="white"/>
<path fill-rule="evenodd" clip-rule="evenodd" d="M8 10C8 8.89543 8.89543 8 10 8H78C79.1046 8 80 8.89543 80 10V78C80 79.1046 79.1046 80 78 80H10C8.89543 80 8 79.1046 8 78V10ZM12 12V76H76V12H12Z" fill="black"/>
<path d="M31 64V48H23V64H31Z" fill="black"/>
<path fill-rule="evenodd" clip-rule="evenodd" d="M21 46H33V66H21V46ZM25 50V62H29V50H25Z" fill="black"/>
<path d="M47 64V40H39V64H47Z" fill="black"/>
<path fill-rule="evenodd" clip-rule="evenodd" d="M37 38H49V66H37V38ZM41 42V62H45V42H41Z" fill="black"/>
<path d="M64 64V24H55V64H64Z" fill="black"/>
<path fill-rule="evenodd" clip-rule="evenodd" d="M53 22H66V66H53V22ZM57 26V62H62V26H57Z" fill="black"/>
</svg>
