<svg width="96" height="96" viewBox="0 0 96 96" fill="none" xmlns="http://www.w3.org/2000/svg">
<path d="M18 18H86V86H18V18Z" fill="black"/>
<path fill-rule="evenodd" clip-rule="evenodd" d="M16 18C16 16.8954 16.8954 16 18 16H86C87.1046 16 88 16.8954 88 18V86C88 87.1046 87.1046 88 86 88H18C16.8954 88 16 87.1046 16 86V18ZM20 20V84H84V20H20Z" fill="black"/>
<path d="M10 10H78V78H10V10Z" fill="white"/>
<path fill-rule="evenodd" clip-rule="evenodd" d="M8 10C8 8.89543 8.89543 8 10 8H78C79.1046 8 80 8.89543 80 10V78C80 79.1046 79.1046 80 78 80H10C8.89543 80 8 79.1046 8 78V10ZM12 12V76H76V12H12Z" fill="black"/>
<path d="M54 62L62 42H26L34 62H54Z" fill="black"/>
<path fill-rule="evenodd" clip-rule="evenodd" d="M20.0918 38H67.9081L56.7081 66H31.2918L20.0918 38ZM31.9081 46L36.7081 58H51.2918L56.0918 46H31.9081Z" fill="black"/>
<path fill-rule="evenodd" clip-rule="evenodd" d="M30 48H58V44H30V48Z" fill="white"/>
<path fill-rule="evenodd" clip-rule="evenodd" d="M34 56H54V52H34V56Z" fill="white"/>
<path fill-rule="evenodd" clip-rule="evenodd" d="M56.4224 43.7889L48.4224 27.7889L55.5778 24.2112L63.5778 40.2112L56.4224 43.7889Z" fill="black"/>
<path fill-rule="evenodd" clip-rule="evenodd" d="M31.5776 43.7889L39.5776 27.7889L32.4222 24.2112L24.4222 40.2112L31.5776 43.7889Z" fill="black"/>
</svg>
