<svg width="96" height="96" viewBox="0 0 96 96" fill="none" xmlns="http://www.w3.org/2000/svg">
<path d="M18 18H86V86H18V18Z" fill="black"/>
<path fill-rule="evenodd" clip-rule="evenodd" d="M16 18C16 16.8954 16.8954 16 18 16H86C87.1046 16 88 16.8954 88 18V86C88 87.1046 87.1046 88 86 88H18C16.8954 88 16 87.1046 16 86V18ZM20 20V84H84V20H20Z" fill="black"/>
<path d="M10 10H78V78H10V10Z" fill="white"/>
<path fill-rule="evenodd" clip-rule="evenodd" d="M8 10C8 8.89543 8.89543 8 10 8H78C79.1046 8 80 8.89543 80 10V78C80 79.1046 79.1046 80 78 80H10C8.89543 80 8 79.1046 8 78V10ZM12 12V76H76V12H12Z" fill="black"/>
<path d="M64 58V30H36L24 44L36 58H64Z" fill="black"/>
<path fill-rule="evenodd" clip-rule="evenodd" d="M34.16 26H67.9998V62H34.16L18.7314 44L34.16 26ZM37.8395 34L29.2681 44L37.8395 54H59.9998V34H37.8395Z" fill="black"/>
<path fill-rule="evenodd" clip-rule="evenodd" d="M38.1002 51.0709L55.0708 34.1003L57.8992 36.9288L40.9287 53.8993L38.1002 51.0709Z" fill="white"/>
<path fill-rule="evenodd" clip-rule="evenodd" d="M55.0711 53.8995L38.1006 36.929L40.929 34.1005L57.8996 51.0711L55.0711 53.8995Z" fill="white"/>
</svg>
