<svg width="96" height="96" viewBox="0 0 96 96" fill="none" xmlns="http://www.w3.org/2000/svg">
<path d="M18 18H86V86H18V18Z" fill="black"/>
<path fill-rule="evenodd" clip-rule="evenodd" d="M16 18C16 16.8954 16.8954 16 18 16H86C87.1046 16 88 16.8954 88 18V86C88 87.1046 87.1046 88 86 88H18C16.8954 88 16 87.1046 16 86V18ZM20 20V84H84V20H20Z" fill="black"/>
<path d="M10 10H78V78H10V10Z" fill="white"/>
<path fill-rule="evenodd" clip-rule="evenodd" d="M8 10C8 8.89543 8.89543 8 10 8H78C79.1046 8 80 8.89543 80 10V78C80 79.1046 79.1046 80 78 80H10C8.89543 80 8 79.1046 8 78V10ZM12 12V76H76V12H12Z" fill="black"/>
<path fill-rule="evenodd" clip-rule="evenodd" d="M40.2861 62.5144L56.2861 22.5144L63.7139 25.4855L47.7139 65.4855L40.2861 62.5144Z" fill="black"/>
<path fill-rule="evenodd" clip-rule="evenodd" d="M24.2861 62.5144L40.2861 22.5144L47.7139 25.4855L31.7139 65.4855L24.2861 62.5144Z" fill="black"/>
<path fill-rule="evenodd" clip-rule="evenodd" d="M68 55H20V47H68V55Z" fill="black"/>
<path fill-rule="evenodd" clip-rule="evenodd" d="M68 41H20V33H68V41Z" fill="black"/>
</svg>
