<svg width="96" height="96" viewBox="0 0 96 96" fill="none" xmlns="http://www.w3.org/2000/svg">
<path d="M18 18H86V86H18V18Z" fill="black"/>
<path fill-rule="evenodd" clip-rule="evenodd" d="M16 18C16 16.8954 16.8954 16 18 16H86C87.1046 16 88 16.8954 88 18V86C88 87.1046 87.1046 88 86 88H18C16.8954 88 16 87.1046 16 86V18ZM20 20V84H84V20H20Z" fill="black"/>
<path d="M10 10H78V78H10V10Z" fill="white"/>
<path fill-rule="evenodd" clip-rule="evenodd" d="M8 10C8 8.89543 8.89543 8 10 8H78C79.1046 8 80 8.89543 80 10V78C80 79.1046 79.1046 80 78 80H10C8.89543 80 8 79.1046 8 78V10ZM12 12V76H76V12H12Z" fill="black"/>
<path fill-rule="evenodd" clip-rule="evenodd" d="M52 20L52 56C52 59.6396 50.7646 62.7833 48.3549 64.9849C46.0053 67.1317 42.9594 68 40 68C37.0406 68 33.9947 67.1317 31.6451 64.9849C29.2354 62.7833 28 59.6396 28 56L36 56C36 57.7787 36.5555 58.635 37.0412 59.0788C37.587 59.5775 38.5411 60 40 60C41.4589 60 42.413 59.5775 42.9588 59.0788C43.4445 58.635 44 57.7787 44 56L44 20L52 20Z" fill="black"/>
<path fill-rule="evenodd" clip-rule="evenodd" d="M40 20L56 20L56 28L40 28L40 20Z" fill="black"/>
</svg>
