<svg width="96" height="96" viewBox="0 0 96 96" fill="none" xmlns="http://www.w3.org/2000/svg">
<path d="M18 18H86V86H18V18Z" fill="black"/>
<path fill-rule="evenodd" clip-rule="evenodd" d="M16 18C16 16.8954 16.8954 16 18 16H86C87.1046 16 88 16.8954 88 18V86C88 87.1046 87.1046 88 86 88H18C16.8954 88 16 87.1046 16 86V18ZM20 20V84H84V20H20Z" fill="black"/>
<path d="M10 10H78V78H10V10Z" fill="white"/>
<path fill-rule="evenodd" clip-rule="evenodd" d="M8 10C8 8.89543 8.89543 8 10 8H78C79.1046 8 80 8.89543 80 10V78C80 79.1046 79.1046 80 78 80H10C8.89543 80 8 79.1046 8 78V10ZM12 12V76H76V12H12Z" fill="black"/>
<path fill-rule="evenodd" clip-rule="evenodd" d="M34 20H44C48.8345 20 52.511 21.879 54.894 24.8302C57.1643 27.6419 58 31.0937 58 34C58 36.9063 57.1643 40.3581 54.894 43.1698C52.511 46.121 48.8345 48 44 48H34V40H44C46.5837 40 47.9073 39.0882 48.6697 38.1439C49.5448 37.0602 50 35.512 50 34C50 32.488 49.5448 30.9398 48.6697 29.8561C47.9073 28.9118 46.5837 28 44 28H34V20Z" fill="black"/>
<path fill-rule="evenodd" clip-rule="evenodd" d="M38 20L38 68L30 68L30 20L38 20Z" fill="black"/>
<path fill-rule="evenodd" clip-rule="evenodd" d="M36.5609 40.927L60.5609 60.927L55.4395 67.0728L31.4395 47.0728L36.5609 40.927Z" fill="black"/>
</svg>
