<svg width="96" height="96" viewBox="0 0 96 96" fill="none" xmlns="http://www.w3.org/2000/svg">
<path d="M18 18H86V86H18V18Z" fill="black"/>
<path fill-rule="evenodd" clip-rule="evenodd" d="M16 18C16 16.8954 16.8954 16 18 16H86C87.1046 16 88 16.8954 88 18V86C88 87.1046 87.1046 88 86 88H18C16.8954 88 16 87.1046 16 86V18ZM20 20V84H84V20H20Z" fill="black"/>
<path d="M10 10H78V78H10V10Z" fill="white"/>
<path fill-rule="evenodd" clip-rule="evenodd" d="M8 10C8 8.89543 8.89543 8 10 8H78C79.1046 8 80 8.89543 80 10V78C80 79.1046 79.1046 80 78 80H10C8.89543 80 8 79.1046 8 78V10ZM12 12V76H76V12H12Z" fill="black"/>
<path fill-rule="evenodd" clip-rule="evenodd" d="M40.3236 48.4243L52.3236 20.4243L59.6768 23.5757L47.6768 51.5757L40.3236 48.4243Z" fill="black"/>
<path fill-rule="evenodd" clip-rule="evenodd" d="M56.0167 66.362L52.0167 22.362L59.9839 21.6377L63.9839 65.6377L56.0167 66.362Z" fill="black"/>
<path fill-rule="evenodd" clip-rule="evenodd" d="M47.6769 48.4243L35.6769 20.4243L28.3237 23.5757L40.3237 51.5757L47.6769 48.4243Z" fill="black"/>
<path fill-rule="evenodd" clip-rule="evenodd" d="M31.9837 66.362L35.9837 22.362L28.0166 21.6377L24.0166 65.6377L31.9837 66.362Z" fill="black"/>
</svg>
