<svg width="96" height="96" viewBox="0 0 96 96" fill="none" xmlns="http://www.w3.org/2000/svg">
<path d="M18 18H86V86H18V18Z" fill="black"/>
<path fill-rule="evenodd" clip-rule="evenodd" d="M16 18C16 16.8954 16.8954 16 18 16H86C87.1046 16 88 16.8954 88 18V86C88 87.1046 87.1046 88 86 88H18C16.8954 88 16 87.1046 16 86V18ZM20 20V84H84V20H20Z" fill="black"/>
<path d="M10 10H78V78H10V10Z" fill="white"/>
<path fill-rule="evenodd" clip-rule="evenodd" d="M8 10C8 8.89543 8.89543 8 10 8H78C79.1046 8 80 8.89543 80 10V78C80 79.1046 79.1046 80 78 80H10C8.89543 80 8 79.1046 8 78V10ZM12 12V76H76V12H12Z" fill="black"/>
<path fill-rule="evenodd" clip-rule="evenodd" d="M34.6835 23.4987C37.6944 21.0325 41.7038 20 46 20H54V28H46C42.878 28 40.8873 28.7583 39.7528 29.6876C38.7289 30.5262 38 31.8237 38 34C38 36.1763 38.7289 37.4738 39.7528 38.3124C40.8873 39.2417 42.878 40 46 40C50.2962 40 54.3056 41.0325 57.3165 43.4987C60.4381 46.0555 62 49.7581 62 54C62 58.2419 60.4381 61.9445 57.3165 64.5013C54.3056 66.9675 50.2962 68 46 68H38V60H46C49.122 60 51.1127 59.2417 52.2472 58.3124C53.2711 57.4738 54 56.1763 54 54C54 51.8237 53.2711 50.5262 52.2472 49.6876C51.1127 48.7583 49.122 48 46 48C41.7038 48 37.6944 46.9675 34.6835 44.5013C31.5619 41.9445 30 38.2419 30 34C30 29.7581 31.5619 26.0555 34.6835 23.4987Z" fill="black"/>
</svg>
