<svg width="96" height="96" viewBox="0 0 96 96" fill="none" xmlns="http://www.w3.org/2000/svg">
<path d="M18 18H86V86H18V18Z" fill="black"/>
<path fill-rule="evenodd" clip-rule="evenodd" d="M16 18C16 16.8954 16.8954 16 18 16H86C87.1046 16 88 16.8954 88 18V86C88 87.1046 87.1046 88 86 88H18C16.8954 88 16 87.1046 16 86V18ZM20 20V84H84V20H20Z" fill="black"/>
<path d="M10 10H78V78H10V10Z" fill="white"/>
<path fill-rule="evenodd" clip-rule="evenodd" d="M8 10C8 8.89543 8.89543 8 10 8H78C79.1046 8 80 8.89543 80 10V78C80 79.1046 79.1046 80 78 80H10C8.89543 80 8 79.1046 8 78V10ZM12 12V76H76V12H12Z" fill="black"/>
<path fill-rule="evenodd" clip-rule="evenodd" d="M34 20V44C34 49.6744 34.308 53.6853 35.6618 56.3066C36.2588 57.4624 37.0428 58.2947 38.171 58.8882C39.3583 59.5127 41.1748 60 44 60C46.8252 60 48.6417 59.5127 49.829 58.8882C50.9572 58.2947 51.7412 57.4624 52.3382 56.3066C53.692 53.6853 54 49.6744 54 44V20H62V44C62 49.3713 61.8309 55.3604 59.4461 59.9777C58.1738 62.4412 56.2731 64.5377 53.5533 65.9684C50.8925 67.368 47.6977 68 44 68C40.3023 68 37.1075 67.368 34.4467 65.9684C31.7269 64.5377 29.8262 62.4412 28.5539 59.9777C26.1691 55.3604 26 49.3713 26 44V20H34Z" fill="black"/>
</svg>
