<svg width="96" height="96" viewBox="0 0 96 96" fill="none" xmlns="http://www.w3.org/2000/svg">
<path d="M18 18H86V86H18V18Z" fill="black"/>
<path fill-rule="evenodd" clip-rule="evenodd" d="M16 18C16 16.8954 16.8954 16 18 16H86C87.1046 16 88 16.8954 88 18V86C88 87.1046 87.1046 88 86 88H18C16.8954 88 16 87.1046 16 86V18ZM20 20V84H84V20H20Z" fill="black"/>
<path d="M10 10H78V78H10V10Z" fill="white"/>
<path fill-rule="evenodd" clip-rule="evenodd" d="M8 10C8 8.89543 8.89543 8 10 8H78C79.1046 8 80 8.89543 80 10V78C80 79.1046 79.1046 80 78 80H10C8.89543 80 8 79.1046 8 78V10ZM12 12V76H76V12H12Z" fill="black"/>
<path fill-rule="evenodd" clip-rule="evenodd" d="M32 20L56 20L56 28L32 28L32 20Z" fill="black"/>
<path fill-rule="evenodd" clip-rule="evenodd" d="M32 60L56 60L56 68L32 68L32 60Z" fill="black"/>
<path fill-rule="evenodd" clip-rule="evenodd" d="M59.4298 26.0581L35.4298 66.0581L28.5698 61.9421L52.5698 21.9421L59.4298 26.0581Z" fill="black"/>
</svg>
