<svg width="96" height="96" viewBox="0 0 96 96" fill="none" xmlns="http://www.w3.org/2000/svg">
<path d="M18 18H86V86H18V18Z" fill="black"/>
<path fill-rule="evenodd" clip-rule="evenodd" d="M16 18C16 16.8954 16.8954 16 18 16H86C87.1046 16 88 16.8954 88 18V86C88 87.1046 87.1046 88 86 88H18C16.8954 88 16 87.1046 16 86V18ZM20 20V84H84V20H20Z" fill="black"/>
<path d="M10 10H78V78H10V10Z" fill="white"/>
<path fill-rule="evenodd" clip-rule="evenodd" d="M8 10C8 8.89543 8.89543 8 10 8H78C79.1046 8 80 8.89543 80 10V78C80 79.1046 79.1046 80 78 80H10C8.89543 80 8 79.1046 8 78V10ZM12 12V76H76V12H12Z" fill="black"/>
<path fill-rule="evenodd" clip-rule="evenodd" d="M58 54H30V46H58V54Z" fill="black"/>
<path fill-rule="evenodd" clip-rule="evenodd" d="M41.2409 23.367L57.2409 67.367L64.7593 64.6331L48.7593 20.6331L41.2409 23.367Z" fill="black"/>
<path fill-rule="evenodd" clip-rule="evenodd" d="M46.7591 23.367L30.7591 67.367L23.2407 64.6331L39.2407 20.6331L46.7591 23.367Z" fill="black"/>
</svg>
