<svg width="96" height="96" viewBox="0 0 96 96" fill="none" xmlns="http://www.w3.org/2000/svg">
<path d="M18 18H86V86H18V18Z" fill="black"/>
<path fill-rule="evenodd" clip-rule="evenodd" d="M16 18C16 16.8954 16.8954 16 18 16H86C87.1046 16 88 16.8954 88 18V86C88 87.1046 87.1046 88 86 88H18C16.8954 88 16 87.1046 16 86V18ZM20 20V84H84V20H20Z" fill="black"/>
<path d="M10 10H78V78H10V10Z" fill="white"/>
<path fill-rule="evenodd" clip-rule="evenodd" d="M8 10C8 8.89543 8.89543 8 10 8H78C79.1046 8 80 8.89543 80 10V78C80 79.1046 79.1046 80 78 80H10C8.89543 80 8 79.1046 8 78V10ZM12 12V76H76V12H12Z" fill="black"/>
<path fill-rule="evenodd" clip-rule="evenodd" d="M56 20H52C43.6613 20 37.4081 22.5122 33.3279 27.2465C29.3438 31.8692 28 37.9623 28 44C28 50.0377 29.3438 56.1308 33.3279 60.7535C37.4081 65.4878 43.6613 68 52 68H56V60H52C45.293 60 41.5462 58.0351 39.3878 55.5308C37.1333 52.9149 36 49.008 36 44C36 38.992 37.1333 35.0851 39.3878 32.4692C41.5462 29.9649 45.293 28 52 28H56V20Z" fill="black"/>
<path fill-rule="evenodd" clip-rule="evenodd" d="M60 44L60 68L52 68L52 44L60 44Z" fill="black"/>
<path fill-rule="evenodd" clip-rule="evenodd" d="M44 44L60 44L60 52L44 52L44 44Z" fill="black"/>
</svg>
