<svg width="96" height="96" viewBox="0 0 96 96" fill="none" xmlns="http://www.w3.org/2000/svg">
<path d="M18 18H86V86H18V18Z" fill="black"/>
<path fill-rule="evenodd" clip-rule="evenodd" d="M16 18C16 16.8954 16.8954 16 18 16H86C87.1046 16 88 16.8954 88 18V86C88 87.1046 87.1046 88 86 88H18C16.8954 88 16 87.1046 16 86V18ZM20 20V84H84V20H20Z" fill="black"/>
<path d="M10 10H78V78H10V10Z" fill="white"/>
<path fill-rule="evenodd" clip-rule="evenodd" d="M8 10C8 8.89543 8.89543 8 10 8H78C79.1046 8 80 8.89543 80 10V78C80 79.1046 79.1046 80 78 80H10C8.89543 80 8 79.1046 8 78V10ZM12 12V76H76V12H12Z" fill="black"/>
<path fill-rule="evenodd" clip-rule="evenodd" d="M32 20H36C44.3387 20 50.5919 22.5122 54.6721 27.2465C58.6562 31.8692 60 37.9623 60 44C60 50.0377 58.6562 56.1308 54.6721 60.7535C50.5919 65.4878 44.3387 68 36 68H32V60H36C42.707 60 46.4538 58.0351 48.6122 55.5308C50.8667 52.9149 52 49.008 52 44C52 38.992 50.8667 35.0851 48.6122 32.4692C46.4538 29.9649 42.707 28 36 28H32V20Z" fill="black"/>
<path fill-rule="evenodd" clip-rule="evenodd" d="M36 20L36 68L28 68L28 20L36 20Z" fill="black"/>
</svg>
