<svg width="96" height="96" viewBox="0 0 96 96" fill="none" xmlns="http://www.w3.org/2000/svg">
<path d="M18 18H86V86H18V18Z" fill="black"/>
<path fill-rule="evenodd" clip-rule="evenodd" d="M16 18C16 16.8954 16.8954 16 18 16H86C87.1046 16 88 16.8954 88 18V86C88 87.1046 87.1046 88 86 88H18C16.8954 88 16 87.1046 16 86V18ZM20 20V84H84V20H20Z" fill="black"/>
<path d="M10 10H78V78H10V10Z" fill="white"/>
<path fill-rule="evenodd" clip-rule="evenodd" d="M8 10C8 8.89543 8.89543 8 10 8H78C79.1046 8 80 8.89543 80 10V78C80 79.1046 79.1046 80 78 80H10C8.89543 80 8 79.1046 8 78V10ZM12 12V76H76V12H12Z" fill="black"/>
<path fill-rule="evenodd" clip-rule="evenodd" d="M32 36H44C49.1815 36 53.3835 37.6462 56.2309 40.864C59.0014 43.9949 60 48.0645 60 52C60 55.9355 59.0014 60.0051 56.2309 63.136C53.3835 66.3538 49.1815 68 44 68H32V60H44C47.4459 60 49.2439 58.9599 50.2397 57.8345C51.3123 56.6223 52 54.6919 52 52C52 49.3081 51.3123 47.3777 50.2397 46.1655C49.2439 45.0401 47.4459 44 44 44H32V36Z" fill="black"/>
<path fill-rule="evenodd" clip-rule="evenodd" d="M32 20H44C47.6396 20 50.7833 21.2354 52.9849 23.6451C55.1317 25.9947 56 29.0406 56 32C56 34.9594 55.1317 38.0053 52.9849 40.3549C50.7833 42.7646 47.6396 44 44 44H32V36H44C45.7787 36 46.635 35.4445 47.0788 34.9588C47.5775 34.413 48 33.4589 48 32C48 30.5411 47.5775 29.587 47.0788 29.0412C46.635 28.5555 45.7787 28 44 28H32V20Z" fill="black"/>
<path fill-rule="evenodd" clip-rule="evenodd" d="M36 20L36 68L28 68L28 20L36 20Z" fill="black"/>
</svg>
