<svg width="96" height="96" viewBox="0 0 96 96" fill="none" xmlns="http://www.w3.org/2000/svg">
<path d="M18 18H86V86H18V18Z" fill="black"/>
<path fill-rule="evenodd" clip-rule="evenodd" d="M16 18C16 16.8954 16.8954 16 18 16H86C87.1046 16 88 16.8954 88 18V86C88 87.1046 87.1046 88 86 88H18C16.8954 88 16 87.1046 16 86V18ZM20 20V84H84V20H20Z" fill="black"/>
<path d="M10 10H78V78H10V10Z" fill="white"/>
<path fill-rule="evenodd" clip-rule="evenodd" d="M8 10C8 8.89543 8.89543 8 10 8H78C79.1046 8 80 8.89543 80 10V78C80 79.1046 79.1046 80 78 80H10C8.89543 80 8 79.1046 8 78V10ZM12 12V76H76V12H12Z" fill="black"/>
<path fill-rule="evenodd" clip-rule="evenodd" d="M33.3642 23.92C35.9156 21.251 39.5981 20 44 20C48.4019 20 52.0845 21.251 54.6358 23.92C57.1509 26.551 58 29.9701 58 33.1636H50C50 31.2963 49.5083 30.1335 48.853 29.448C48.2339 28.8004 46.9165 28 44 28C41.0835 28 39.7661 28.8004 39.147 29.448C38.4917 30.1335 38 31.2963 38 33.1636V52H30V33.1636C30 29.9701 30.8491 26.551 33.3642 23.92Z" fill="black"/>
<path fill-rule="evenodd" clip-rule="evenodd" d="M32.1837 42.9936C34.5802 39.4208 38.7044 38 44 38C49.2956 38 53.4198 39.4208 55.8163 42.9936C57.923 46.1344 58 50.1063 58 53C58 55.8937 57.923 59.8656 55.8163 63.0064C53.4198 66.5792 49.2956 68 44 68C38.7044 68 34.5802 66.5792 32.1837 63.0064C30.077 59.8656 30 55.8937 30 53C30 50.1063 30.077 46.1344 32.1837 42.9936ZM38.8275 47.45C38.2638 48.2905 38 49.8186 38 53C38 56.1814 38.2638 57.7095 38.8275 58.55C39.1014 58.9583 39.9772 60 44 60C48.0228 60 48.8986 58.9583 49.1725 58.55C49.7362 57.7095 50 56.1814 50 53C50 49.8186 49.7362 48.2905 49.1725 47.45C48.8986 47.0417 48.0228 46 44 46C39.9772 46 39.1014 47.0417 38.8275 47.45Z" fill="black"/>
</svg>
