<svg width="96" height="96" viewBox="0 0 96 96" fill="none" xmlns="http://www.w3.org/2000/svg">
<path d="M18 18H86V86H18V18Z" fill="black"/>
<path fill-rule="evenodd" clip-rule="evenodd" d="M16 18C16 16.8954 16.8954 16 18 16H86C87.1046 16 88 16.8954 88 18V86C88 87.1046 87.1046 88 86 88H18C16.8954 88 16 87.1046 16 86V18ZM20 20V84H84V20H20Z" fill="black"/>
<path d="M10 10H78V78H10V10Z" fill="white"/>
<path fill-rule="evenodd" clip-rule="evenodd" d="M8 10C8 8.89543 8.89543 8 10 8H78C79.1046 8 80 8.89543 80 10V78C80 79.1046 79.1046 80 78 80H10C8.89543 80 8 79.1046 8 78V10ZM12 12V76H76V12H12Z" fill="black"/>
<path fill-rule="evenodd" clip-rule="evenodd" d="M36.2351 22.3614C38.4128 20.7427 41.0509 20 44 20C46.9491 20 49.5872 20.7427 51.7649 22.3614C53.911 23.9567 55.2645 26.146 56.1333 28.4425C57.7984 32.8435 58 38.5584 58 44C58 49.4416 57.7984 55.1565 56.1333 59.5575C55.2645 61.854 53.911 64.0433 51.7649 65.6385C49.5872 67.2573 46.9491 68 44 68C41.0509 68 38.4128 67.2573 36.2351 65.6385C34.089 64.0433 32.7355 61.854 31.8667 59.5575C30.2016 55.1565 30 49.4416 30 44C30 38.5584 30.2016 32.8435 31.8667 28.4425C32.7355 26.146 34.089 23.9567 36.2351 22.3614ZM39.3491 31.2733C38.2756 34.1108 38 38.3959 38 44C38 49.6041 38.2756 53.8892 39.3491 56.7267C39.8496 58.0496 40.4306 58.7892 41.0076 59.2181C41.553 59.6234 42.4263 60 44 60C45.5737 60 46.447 59.6234 46.9924 59.2181C47.5694 58.7892 48.1504 58.0496 48.6509 56.7267C49.7244 53.8892 50 49.6041 50 44C50 38.3959 49.7244 34.1108 48.6509 31.2733C48.1504 29.9504 47.5694 29.2108 46.9924 28.7819C46.447 28.3766 45.5737 28 44 28C42.4263 28 41.553 28.3766 41.0076 28.7819C40.4306 29.2108 39.8496 29.9504 39.3491 31.2733Z" fill="black"/>
</svg>
