<svg width="96" height="96" viewBox="0 0 96 96" fill="none" xmlns="http://www.w3.org/2000/svg">
<path d="M18 18H86V86H18V18Z" fill="black"/>
<path fill-rule="evenodd" clip-rule="evenodd" d="M16 18C16 16.8954 16.8954 16 18 16H86C87.1046 16 88 16.8954 88 18V86C88 87.1046 87.1046 88 86 88H18C16.8954 88 16 87.1046 16 86V18ZM20 20V84H84V20H20Z" fill="black"/>
<path d="M10 10H78V78H10V10Z" fill="white"/>
<path fill-rule="evenodd" clip-rule="evenodd" d="M8 10C8 8.89543 8.89543 8 10 8H78C79.1046 8 80 8.89543 80 10V78C80 79.1046 79.1046 80 78 80H10C8.89543 80 8 79.1046 8 78V10ZM12 12V76H76V12H12Z" fill="black"/>
<path fill-rule="evenodd" clip-rule="evenodd" d="M58 36V54.8364C58 58.0299 57.1509 61.449 54.6358 64.08C52.0844 66.749 48.4019 68 44 68C39.5981 68 35.9156 66.749 33.3642 64.08C30.8491 61.449 30 58.0299 30 54.8364H38C38 56.7037 38.4917 57.8665 39.147 58.552C39.7661 59.1996 41.0835 60 44 60C46.9165 60 48.2339 59.1996 48.853 58.552C49.5083 57.8665 50 56.7037 50 54.8364V36H58Z" fill="black"/>
<path fill-rule="evenodd" clip-rule="evenodd" d="M38.8275 29.45C38.2638 30.2905 38 31.8186 38 35C38 38.1814 38.2638 39.7095 38.8275 40.55C39.1014 40.9583 39.9772 42 44 42C48.0228 42 48.8986 40.9583 49.1725 40.55C49.7362 39.7095 50 38.1814 50 35C50 31.8186 49.7362 30.2905 49.1725 29.45C48.8986 29.0417 48.0228 28 44 28C39.9772 28 39.1014 29.0417 38.8275 29.45ZM32.1837 24.9936C34.5802 21.4208 38.7044 20 44 20C49.2956 20 53.4198 21.4208 55.8163 24.9936C57.923 28.1344 58 32.1063 58 35C58 37.8937 57.923 41.8656 55.8163 45.0064C53.4198 48.5792 49.2956 50 44 50C38.7044 50 34.5802 48.5792 32.1837 45.0064C30.077 41.8656 30 37.8937 30 35C30 32.1063 30.077 28.1344 32.1837 24.9936Z" fill="black"/>
</svg>
