<svg width="96" height="96" viewBox="0 0 96 96" fill="none" xmlns="http://www.w3.org/2000/svg">
<path d="M18 18H86V86H18V18Z" fill="black"/>
<path fill-rule="evenodd" clip-rule="evenodd" d="M16 18C16 16.8954 16.8954 16 18 16H86C87.1046 16 88 16.8954 88 18V86C88 87.1046 87.1046 88 86 88H18C16.8954 88 16 87.1046 16 86V18ZM20 20V84H84V20H20Z" fill="black"/>
<path d="M10 10H78V78H10V10Z" fill="white"/>
<path fill-rule="evenodd" clip-rule="evenodd" d="M8 10C8 8.89543 8.89543 8 10 8H78C79.1046 8 80 8.89543 80 10V78C80 79.1046 79.1046 80 78 80H10C8.89543 80 8 79.1046 8 78V10ZM12 12V76H76V12H12Z" fill="black"/>
<path fill-rule="evenodd" clip-rule="evenodd" d="M36 20H44C48.2962 20 52.3056 21.0325 55.3165 23.4987C58.4381 26.0555 60 29.7581 60 34C60 38.2419 58.4381 41.9445 55.3165 44.5013C52.3056 46.9675 48.2962 48 44 48H36V40H44C47.122 40 49.1127 39.2417 50.2472 38.3124C51.2711 37.4738 52 36.1763 52 34C52 31.8237 51.2711 30.5262 50.2472 29.6876C49.1127 28.7583 47.122 28 44 28H36V20Z" fill="black"/>
<path fill-rule="evenodd" clip-rule="evenodd" d="M55.3165 43.4987C58.4381 46.0555 60 49.7581 60 54C60 58.2419 58.4381 61.9445 55.3165 64.5013C52.3056 66.9675 48.2962 68 44 68H32V60H44C47.122 60 49.1127 59.2417 50.2472 58.3124C51.2711 57.4738 52 56.1763 52 54C52 51.8237 51.2711 50.5262 50.2472 49.6876C49.1127 48.7583 47.122 48 44 48V40C48.2962 40 52.3056 41.0325 55.3165 43.4987Z" fill="black"/>
</svg>
