<svg width="96" height="96" viewBox="0 0 96 96" fill="none" xmlns="http://www.w3.org/2000/svg">
<path d="M18 18H86V86H18V18Z" fill="black"/>
<path fill-rule="evenodd" clip-rule="evenodd" d="M16 18C16 16.8954 16.8954 16 18 16H86C87.1046 16 88 16.8954 88 18V86C88 87.1046 87.1046 88 86 88H18C16.8954 88 16 87.1046 16 86V18ZM20 20V84H84V20H20Z" fill="black"/>
<path d="M10 10H78V78H10V10Z" fill="white"/>
<path fill-rule="evenodd" clip-rule="evenodd" d="M8 10C8 8.89543 8.89543 8 10 8H78C79.1046 8 80 8.89543 80 10V78C80 79.1046 79.1046 80 78 80H10C8.89543 80 8 79.1046 8 78V10ZM12 12V76H76V12H12Z" fill="black"/>
<path fill-rule="evenodd" clip-rule="evenodd" d="M32 60L56 60L56 68L32 68L32 60Z" fill="black"/>
<path fill-rule="evenodd" clip-rule="evenodd" d="M32 20H40C47.2903 20 52.684 22.0418 55.3865 26.4833C57.9786 30.7436 57.1557 35.7379 55.7333 39.4359C54.8958 41.6136 53.0288 44.4408 51.0564 47.1557C48.9962 49.9916 46.5169 53.1087 44.1492 55.9815C41.7758 58.8613 39.4855 61.5305 37.7905 63.4778C36.9423 64.4523 36.2414 65.248 35.7515 65.8012C35.5065 66.0779 35.3141 66.294 35.1824 66.4417L35.0313 66.611L34.9782 66.6702L34.9774 66.6711C34.9771 66.6714 34.9769 66.6716 32 64L29.0229 61.3284L29.0692 61.2768L29.2118 61.1171C29.3376 60.976 29.5237 60.7668 29.7621 60.4976C30.239 59.9591 30.9248 59.1805 31.7563 58.2253C33.4207 56.3132 35.6616 53.7012 37.9757 50.8935C40.2955 48.0788 42.66 45.1022 44.5841 42.4536C46.5961 39.6842 47.8542 37.6364 48.2666 36.5641C49.3443 33.7621 49.2304 31.7564 48.5522 30.6417C47.9842 29.7082 46.1279 28 40 28H32V20Z" fill="black"/>
</svg>
