<svg width="96" height="96" viewBox="0 0 96 96" fill="none" xmlns="http://www.w3.org/2000/svg">
<path d="M18 18H86V86H18V18Z" fill="black"/>
<path fill-rule="evenodd" clip-rule="evenodd" d="M16 18C16 16.8954 16.8954 16 18 16H86C87.1046 16 88 16.8954 88 18V86C88 87.1046 87.1046 88 86 88H18C16.8954 88 16 87.1046 16 86V18ZM20 20V84H84V20H20Z" fill="black"/>
<path d="M10 10H78V78H10V10Z" fill="white"/>
<path fill-rule="evenodd" clip-rule="evenodd" d="M8 10C8 8.89543 8.89543 8 10 8H78C79.1046 8 80 8.89543 80 10V78C80 79.1046 79.1046 80 78 80H10C8.89543 80 8 79.1046 8 78V10ZM12 12V76H76V12H12Z" fill="black"/>
<path fill-rule="evenodd" clip-rule="evenodd" d="M30 20H54V28H38V34C38 35.7045 38.4003 37.218 39.1691 38.2162C39.7951 39.029 41.0362 40 44 40C48.4778 40 52.3861 40.989 54.9976 43.9447C57.5099 46.7881 58 50.5665 58 54C58 58.2419 56.4381 61.9445 53.3165 64.5013C50.3056 66.9675 46.2962 68 42 68H34V60H42C45.122 60 47.1127 59.2417 48.2472 58.3124C49.2711 57.4738 50 56.1763 50 54C50 51.0152 49.4901 49.7936 49.0024 49.2416C48.6139 48.8019 47.5222 48 44 48C38.9638 48 35.2049 46.1801 32.8309 43.0975C30.5997 40.2003 30 36.7138 30 34V20Z" fill="black"/>
</svg>
