<svg width="96" height="96" viewBox="0 0 96 96" fill="none" xmlns="http://www.w3.org/2000/svg">
<path d="M18 18H86V86H18V18Z" fill="black"/>
<path fill-rule="evenodd" clip-rule="evenodd" d="M16 18C16 16.8954 16.8954 16 18 16H86C87.1046 16 88 16.8954 88 18V86C88 87.1046 87.1046 88 86 88H18C16.8954 88 16 87.1046 16 86V18ZM20 20V84H84V20H20Z" fill="black"/>
<path d="M10 10H78V78H10V10Z" fill="white"/>
<path fill-rule="evenodd" clip-rule="evenodd" d="M8 10C8 8.89543 8.89543 8 10 8H78C79.1046 8 80 8.89543 80 10V78C80 79.1046 79.1046 80 78 80H10C8.89543 80 8 79.1046 8 78V10ZM12 12V76H76V12H12Z" fill="black"/>
<path fill-rule="evenodd" clip-rule="evenodd" d="M33.1363 24.2612C35.4521 21.1226 39.2987 20 44 20C48.7013 20 52.5479 21.1226 54.8636 24.2612C56.9472 27.0851 57 30.6461 57 33C57 35.3539 56.9472 38.9149 54.8636 41.7388C52.5479 44.8774 48.7013 46 44 46C39.2987 46 35.4521 44.8774 33.1363 41.7388C31.0528 38.9149 31 35.3539 31 33C31 30.6461 31.0528 27.0851 33.1363 24.2612ZM39.5738 29.0109C39.2539 29.4444 39 30.3833 39 33C39 35.6167 39.2539 36.5556 39.5738 36.9891L39.5741 36.9896C39.6631 37.1102 40.3196 38 44 38C47.6804 38 48.3369 37.1102 48.4259 36.9896L48.4262 36.9891C48.7461 36.5556 49 35.6167 49 33C49 30.3833 48.7461 29.4444 48.4262 29.0109L48.4259 29.0104C48.3369 28.8898 47.6804 28 44 28C40.3196 28 39.6631 28.8898 39.5741 29.0104L39.5738 29.0109Z" fill="black"/>
<path fill-rule="evenodd" clip-rule="evenodd" d="M31.4375 42.847C34.0202 39.3465 38.3668 38 44 38C49.6332 38 53.9798 39.3465 56.5625 42.847C58.9131 46.0328 59 50.0938 59 53C59 55.9062 58.9131 59.9672 56.5625 63.153C53.9798 66.6535 49.6332 68 44 68C38.3668 68 34.0202 66.6535 31.4375 63.153C29.0869 59.9672 29 55.9062 29 53C29 50.0938 29.0869 46.0328 31.4375 42.847ZM37.8749 47.5967C37.288 48.3921 37 49.831 37 53C37 56.169 37.288 57.6079 37.8749 58.4033C38.2296 58.8841 39.383 60 44 60C48.617 60 49.7704 58.8841 50.1251 58.4033C50.712 57.6079 51 56.169 51 53C51 49.831 50.712 48.3921 50.1251 47.5967C49.7704 47.116 48.617 46 44 46C39.383 46 38.2296 47.116 37.8749 47.5967Z" fill="black"/>
</svg>
