<svg width="96" height="96" viewBox="0 0 96 96" fill="none" xmlns="http://www.w3.org/2000/svg">
<path d="M18 18H86V86H18V18Z" fill="black"/>
<path fill-rule="evenodd" clip-rule="evenodd" d="M16 18C16 16.8954 16.8954 16 18 16H86C87.1046 16 88 16.8954 88 18V86C88 87.1046 87.1046 88 86 88H18C16.8954 88 16 87.1046 16 86V18ZM20 20V84H84V20H20Z" fill="black"/>
<path d="M10 10H78V78H10V10Z" fill="white"/>
<path fill-rule="evenodd" clip-rule="evenodd" d="M8 10C8 8.89543 8.89543 8 10 8H78C79.1046 8 80 8.89543 80 10V78C80 79.1046 79.1046 80 78 80H10C8.89543 80 8 79.1046 8 78V10ZM12 12V76H76V12H12Z" fill="black"/>
<path d="M64 58V30H24V58H64Z" fill="black"/>
<path fill-rule="evenodd" clip-rule="evenodd" d="M20 26H68V62H20V26ZM28 34V54H60V34H28Z" fill="black"/>
<path fill-rule="evenodd" clip-rule="evenodd" d="M36 26H28V22H36V26Z" fill="black"/>
<path d="M56 44C56 50.6274 50.6274 56 44 56C37.3726 56 32 50.6274 32 44C32 37.3726 37.3726 32 44 32C50.6274 32 56 37.3726 56 44Z" fill="white"/>
<path d="M52 44C52 48.4183 48.4183 52 44 52C39.5817 52 36 48.4183 36 44C36 39.5817 39.5817 36 44 36C48.4183 36 52 39.5817 52 44Z" fill="black"/>
</svg>
