<svg width="96" height="96" viewBox="0 0 96 96" fill="none" xmlns="http://www.w3.org/2000/svg">
<path d="M18 18H86V86H18V18Z" fill="black"/>
<path fill-rule="evenodd" clip-rule="evenodd" d="M16 18C16 16.8954 16.8954 16 18 16H86C87.1046 16 88 16.8954 88 18V86C88 87.1046 87.1046 88 86 88H18C16.8954 88 16 87.1046 16 86V18ZM20 20V84H84V20H20Z" fill="black"/>
<path d="M10 10H78V78H10V10Z" fill="white"/>
<path fill-rule="evenodd" clip-rule="evenodd" d="M8 10C8 8.89543 8.89543 8 10 8H78C79.1046 8 80 8.89543 80 10V78C80 79.1046 79.1046 80 78 80H10C8.89543 80 8 79.1046 8 78V10ZM12 12V76H76V12H12Z" fill="black"/>
<path d="M64 44C64 47.9556 62.827 51.8224 60.6294 55.1114C58.4318 58.4004 55.3082 60.9638 51.6537 62.4776C47.9992 63.9913 43.9778 64.3874 40.0982 63.6157C36.2186 62.844 32.6549 60.9392 29.8579 58.1421C27.0608 55.3451 25.156 51.7814 24.3843 47.9018C23.6126 44.0222 24.0087 40.0009 25.5224 36.3463C27.0362 32.6918 29.5996 29.5682 32.8886 27.3706C36.1776 25.173 40.0444 24 44 24V44H64Z" fill="black"/>
<path d="M68 40C68 37.3736 67.4827 34.7728 66.4776 32.3463C65.4725 29.9198 63.9993 27.715 62.1421 25.8579C60.285 24.0007 58.0802 22.5275 55.6537 21.5224C53.2272 20.5173 50.6264 20 48 20V40H68Z" fill="black"/>
</svg>
